<svg width="84" height="97" viewBox="0 0 84 97" fill="none" xmlns="http://www.w3.org/2000/svg">
<path d="M64.4458 4.28348L61.9681 0L59.4904 4.28348L57.0127 8.58796H59.5744V62.0895H64.3618V8.58796H66.9235L64.4458 4.28348Z" fill="url(#paint0_linear_2001_4044)"/>
<path d="M74.6075 20.1152L72.1298 15.8317L69.6521 20.1152L67.1744 24.3987H69.7361V68.9553H74.5236V24.3987H77.0852L74.6075 20.1152Z" fill="url(#paint1_linear_2001_4044)"/>
<path d="M54.4091 13.0397V50.4782L7.10179 76.5781L5.44299 75.0662V40.0635L54.4091 13.0397Z" fill="url(#paint2_linear_2001_4044)"/>
<path d="M52.4352 16.3568V49.3229L52.3512 49.3649L40.1727 56.0841L7.39568 74.1839V41.2388L10.1673 39.706L22.3459 32.9868L24.0047 32.063L28.4981 29.5852L52.4352 16.3568Z" fill="url(#paint3_linear_2001_4044)"/>
<path d="M83.6581 66.688L38.8495 94.3416L35.5949 94.2366L10.8809 80.5253L11.1329 80.2733L7.10136 76.5778L54.4087 50.4569L59.0491 53.0396L62.1567 54.7614L67.4061 57.659L70.4927 59.3808L75.7421 62.2995L78.8287 64.0213L83.6581 66.688Z" fill="url(#paint4_linear_2001_4044)"/>
<path d="M9.4964 77.5031L54.41 52.705L79.7749 66.7943L37.339 92.9782L9.4964 77.5031Z" fill="url(#paint5_linear_2001_4044)"/>
<path d="M46.052 77.8374L59.8264 69.5224L67.9734 74.0368L54.3671 82.4358L46.052 77.8374Z" fill="url(#paint6_linear_2001_4044)"/>
<path d="M35.5957 94.2369L33.5799 94.174L10.1887 81.1975L10.8816 80.5256L35.5957 94.2369Z" fill="url(#paint7_linear_2001_4044)"/>
<path d="M83.6592 66.6888V67.9066L40.5094 94.3844L38.8506 94.3424L83.6592 66.6888Z" fill="url(#paint8_linear_2001_4044)"/>
<path style="mix-blend-mode:screen" d="M52.3505 49.3653L40.172 56.0845L10.1666 39.7064L22.3452 32.9872L52.3505 49.3653Z" fill="url(#paint9_linear_2001_4044)"/>
<path style="mix-blend-mode:screen" d="M52.4361 42.6465V46.888V47.6019L24.0056 32.0638L28.499 29.5861L52.4361 42.6465Z" fill="url(#paint10_linear_2001_4044)"/>
<path d="M39.3331 92.8719C19.7635 92.8719 3.91039 77.0188 3.91039 57.4702C3.91039 37.9006 19.7635 22.0475 39.3331 22.0475C39.921 22.0475 40.488 22.0685 41.0759 22.0895L46.4513 19.1288C44.1415 18.6879 41.7688 18.4779 39.3331 18.4779C17.7897 18.4779 0.34082 35.9268 0.34082 57.4702C0.34082 78.9926 17.7897 96.4415 39.3331 96.4415C54.3043 96.4415 67.3017 88.0005 73.8319 75.612L66.5668 80.0635C60.0786 87.8955 50.2938 92.8719 39.3331 92.8719Z" fill="url(#paint11_linear_2001_4044)"/>
<defs>
<linearGradient id="paint0_linear_2001_4044" x1="256.53" y1="-21.2377" x2="256.53" y2="61.7067" gradientUnits="userSpaceOnUse">
<stop stop-color="#FFAD4B"/>
<stop offset="1" stop-color="#77007C"/>
</linearGradient>
<linearGradient id="paint1_linear_2001_4044" x1="214.629" y1="11.3517" x2="214.629" y2="74.347" gradientUnits="userSpaceOnUse">
<stop stop-color="#FFAD4B"/>
<stop offset="1" stop-color="#77007C"/>
</linearGradient>
<linearGradient id="paint2_linear_2001_4044" x1="5.4369" y1="13.0389" x2="54.4045" y2="13.0389" gradientUnits="userSpaceOnUse">
<stop stop-color="#461885"/>
<stop offset="1" stop-color="#AA51E0"/>
</linearGradient>
<linearGradient id="paint3_linear_2001_4044" x1="88.6389" y1="52.7847" x2="37.7531" y2="103.159" gradientUnits="userSpaceOnUse">
<stop stop-color="#FFAD4B"/>
<stop offset="1" stop-color="#77007C"/>
</linearGradient>
<linearGradient id="paint4_linear_2001_4044" x1="7.09905" y1="50.4586" x2="83.6537" y2="50.4586" gradientUnits="userSpaceOnUse">
<stop stop-color="#461885"/>
<stop offset="1" stop-color="#AA51E0"/>
</linearGradient>
<linearGradient id="paint5_linear_2001_4044" x1="85.1536" y1="69.9473" x2="42.7061" y2="103.681" gradientUnits="userSpaceOnUse">
<stop stop-color="#AA51E0"/>
<stop offset="1" stop-color="#461885"/>
</linearGradient>
<linearGradient id="paint6_linear_2001_4044" x1="41.9187" y1="55.1332" x2="70.8047" y2="77.1212" gradientUnits="userSpaceOnUse">
<stop stop-color="#AA51E0"/>
<stop offset="1" stop-color="#461885"/>
</linearGradient>
<linearGradient id="paint7_linear_2001_4044" x1="19.1834" y1="95.1482" x2="19.1834" y2="81.8394" gradientUnits="userSpaceOnUse">
<stop stop-color="#AA51E0"/>
<stop offset="1" stop-color="#461885"/>
</linearGradient>
<linearGradient id="paint8_linear_2001_4044" x1="65.9271" y1="64.415" x2="87.4938" y2="77.0609" gradientUnits="userSpaceOnUse">
<stop stop-color="#461885"/>
<stop offset="1" stop-color="#AA51E0"/>
</linearGradient>
<linearGradient id="paint9_linear_2001_4044" x1="11.4594" y1="18.6059" x2="58.7448" y2="44.6128" gradientUnits="userSpaceOnUse">
<stop stop-color="#FFAD4B"/>
<stop offset="1" stop-color="#77007C" stop-opacity="0"/>
</linearGradient>
<linearGradient id="paint10_linear_2001_4044" x1="25.0903" y1="19.2135" x2="58.1166" y2="37.378" gradientUnits="userSpaceOnUse">
<stop stop-color="#FFAD4B"/>
<stop offset="1" stop-color="#77007C" stop-opacity="0"/>
</linearGradient>
<linearGradient id="paint11_linear_2001_4044" x1="0.34523" y1="18.4699" x2="73.8319" y2="18.4699" gradientUnits="userSpaceOnUse">
<stop stop-color="#FFAD4B"/>
<stop offset="1" stop-color="#77007C"/>
</linearGradient>
</defs>
</svg>
