<svg width="95" height="87" viewBox="0 0 95 87" fill="none" xmlns="http://www.w3.org/2000/svg">
<path d="M86.4611 86.9999C76.5967 79.9696 63.0855 75.6197 48.1682 75.6197C33.2729 75.6197 19.7616 79.9696 9.89734 86.9999H86.4611Z" fill="white"/>
<path d="M90.7451 82.9338C88.7898 83.1974 62.734 82.9338 62.734 82.9338L62.1189 80.2096L59.7461 69.4885C59.7461 69.4885 69.3468 69.9718 68.7536 69.2468C68.1605 68.5438 67.1059 57.5151 61.7673 55.8454C56.4287 54.1757 48.1682 53.9341 48.1682 53.9341V32.9752L55.7916 27.8563C59.4825 32.1623 79.1672 43.1251 81.5619 48.3758C83.9565 53.6045 93.3595 66.94 94.2163 72.1688C95.0951 77.4195 92.7004 82.6921 90.7451 82.9338Z" fill="url(#paint0_linear_2001_3979)"/>
<path style="mix-blend-mode:multiply" d="M90.7449 82.9346C88.7896 83.1982 62.7338 82.9346 62.7338 82.9346L62.1187 80.2103C66.9519 80.0126 74.0261 79.6391 80.5291 79.0899C91.8214 78.1232 94.2161 72.1695 94.2161 72.1695C95.0949 77.4202 92.7002 82.6929 90.7449 82.9346Z" fill="url(#paint1_linear_2001_3979)"/>
<path style="mix-blend-mode:multiply" d="M86.4609 69.864C86.4609 69.864 80.5731 57.0557 74.5974 53.7823L76.4868 68.5019L86.4609 69.864Z" fill="url(#paint2_linear_2001_3979)"/>
<path d="M74.5969 71.1145C74.5969 71.1145 82.8354 68.5661 90.2831 72.2569C90.2831 72.2569 88.3937 68.5221 80.4627 66.8964C80.4627 66.8964 75.4097 50.2655 69.434 49.4965C63.4583 48.7056 63.1508 72.2569 63.1508 72.2569L74.5969 71.1145Z" fill="#00042D"/>
<path d="M38.6117 27.8563C34.9208 32.1623 15.2361 43.1251 12.8414 48.3758C10.4468 53.6045 1.04382 66.94 0.187009 72.1688C-0.691771 77.4195 1.7029 82.6921 3.65819 82.9338C5.61347 83.1974 31.6693 82.9338 31.6693 82.9338L34.6572 69.4885C34.6572 69.4885 25.0565 69.9718 25.6497 69.2468C26.2428 68.5438 27.2974 57.5151 32.636 55.8454C37.9746 54.1757 46.2351 53.9341 46.2351 53.9341V32.9752L38.6117 27.8563Z" fill="url(#paint3_linear_2001_3979)"/>
<path style="mix-blend-mode:multiply" d="M3.65819 82.9346C5.61347 83.1982 31.6693 82.9346 31.6693 82.9346L32.2845 80.2103C27.4512 80.0126 20.377 79.6391 13.874 79.0899C2.58168 78.1232 0.187009 72.1695 0.187009 72.1695C-0.691771 77.4202 1.7029 82.6929 3.65819 82.9346Z" fill="url(#paint4_linear_2001_3979)"/>
<path style="mix-blend-mode:multiply" d="M7.94147 69.864C7.94147 69.864 13.8293 57.0557 19.805 53.7823L17.9156 68.5019L7.94147 69.864Z" fill="url(#paint5_linear_2001_3979)"/>
<path d="M20.5081 71.1145C20.5081 71.1145 12.2696 68.5661 4.8219 72.2569C4.8219 72.2569 6.71128 68.5221 14.6203 66.8964C14.6203 66.8964 19.6733 50.2655 25.671 49.4965C31.6467 48.7056 31.9323 72.2569 31.9323 72.2569L20.5081 71.1145Z" fill="#00042D"/>
<path d="M66.9959 27.0669C66.7103 33.2843 65.6338 46.4001 61.2619 49.9591C57.9884 52.6174 52.0566 50.9477 47.6188 50.9477C42.434 50.9477 37.1833 53.4523 33.7121 49.9591C30.197 46.444 28.4834 32.5153 28.2417 27.0669C31.647 19.773 39.0507 14.6981 47.6188 14.6981C56.2089 14.6981 63.6126 19.773 66.9959 27.0669Z" fill="url(#paint6_linear_2001_3979)"/>
<path style="mix-blend-mode:multiply" d="M29.0994 20.8923C29.0994 30.0317 31.4282 39.6104 33.2517 43.8505C35.0971 48.0906 41.2046 55.8019 47.6417 56.9443C54.0788 58.0867 60.384 48.7497 62.4052 43.2133C65.7006 34.2937 66.0082 19.662 66.0082 19.662C66.0082 19.662 55.5068 10.1053 45.6864 11.0061C35.888 11.8848 29.0994 20.8923 29.0994 20.8923Z" fill="url(#paint7_linear_2001_3979)"/>
<path d="M33.0752 18.6531C33.0752 25.7273 34.8987 33.131 36.3486 36.4044C37.7767 39.6999 41.8191 46.5544 47.619 46.5544C52.7379 46.5544 57.6151 40.2052 59.1969 35.9431C61.7893 29.0227 62.031 17.6864 62.031 17.6864C62.031 17.6864 53.7924 10.3047 46.1031 10.9857C38.3918 11.6668 33.0752 18.6531 33.0752 18.6531Z" fill="#00042D"/>
<path d="M47.6193 0C40.4793 0 28.2203 14.7635 28.2203 26.0778C28.2203 26.4147 28.2276 26.7442 28.2422 27.0664C31.6475 19.7726 39.0512 14.6976 47.6193 14.6976C56.2094 14.6976 63.6131 19.7726 66.9964 27.0664C67.0111 26.7442 67.0184 26.4147 67.0184 26.0778C67.0184 14.7635 55.0011 0 47.6193 0Z" fill="url(#paint8_linear_2001_3979)"/>
<path d="M70.9295 81.7477H24.3102C22.1132 81.7477 20.2678 80.056 20.092 77.8591L17.4557 47.5632C17.236 45.0806 19.1913 42.9496 21.6738 42.9496H73.5658C76.0703 42.9496 78.0037 45.0806 77.8059 47.5632L75.1696 77.8591C74.9719 80.056 73.1484 81.7477 70.9295 81.7477Z" fill="white"/>
<path d="M70.9295 83.0661H24.3102C22.1132 83.0661 20.2678 81.3745 20.092 79.1775L17.4557 48.8816C17.236 46.399 19.1913 44.268 21.6738 44.268H73.5658C76.0703 44.268 78.0037 46.399 77.8059 48.8816L75.1696 79.1775C74.9719 81.3745 73.1484 83.0661 70.9295 83.0661Z" fill="url(#paint9_linear_2001_3979)"/>
<g style="mix-blend-mode:multiply">
<path d="M24.2443 44.268H21.6738C19.1913 44.268 17.236 46.399 17.4557 48.8816L20.092 79.1775C20.2678 81.3745 22.1132 83.0661 24.3102 83.0661H26.1337L24.2443 44.268Z" fill="url(#paint10_linear_2001_3979)"/>
<path d="M73.5652 44.2679H70.9947L69.1053 83.066H70.9288C73.1477 83.066 74.9712 81.3744 75.1689 79.1774L77.8053 48.8815C78.003 46.3989 76.0697 44.2679 73.5652 44.2679Z" fill="url(#paint11_linear_2001_3979)"/>
</g>
<defs>
<linearGradient id="paint0_linear_2001_3979" x1="7.54111" y1="84.7041" x2="66.9595" y2="-24.9328" gradientUnits="userSpaceOnUse">
<stop stop-color="#FF00C1"/>
<stop offset="1" stop-color="#F4AC24"/>
</linearGradient>
<linearGradient id="paint1_linear_2001_3979" x1="69.8756" y1="86.5852" x2="79.9845" y2="64.365" gradientUnits="userSpaceOnUse">
<stop stop-color="#F4D63B" stop-opacity="0"/>
<stop offset="1" stop-color="#5C1CB2"/>
</linearGradient>
<linearGradient id="paint2_linear_2001_3979" x1="94.7391" y1="50.4317" x2="90.8766" y2="73.0544" gradientUnits="userSpaceOnUse">
<stop stop-color="#F4D63B" stop-opacity="0"/>
<stop offset="1" stop-color="#5C1CB2"/>
</linearGradient>
<linearGradient id="paint3_linear_2001_3979" x1="-23.024" y1="52.1987" x2="18.107" y2="-23.695" gradientUnits="userSpaceOnUse">
<stop stop-color="#FF00C1"/>
<stop offset="1" stop-color="#F4AC24"/>
</linearGradient>
<linearGradient id="paint4_linear_2001_3979" x1="24.5275" y1="86.5852" x2="14.4186" y2="64.365" gradientUnits="userSpaceOnUse">
<stop stop-color="#F4D63B" stop-opacity="0"/>
<stop offset="1" stop-color="#5C1CB2"/>
</linearGradient>
<linearGradient id="paint5_linear_2001_3979" x1="-0.336642" y1="50.4317" x2="3.52579" y2="73.0544" gradientUnits="userSpaceOnUse">
<stop stop-color="#F4D63B" stop-opacity="0"/>
<stop offset="1" stop-color="#5C1CB2"/>
</linearGradient>
<linearGradient id="paint6_linear_2001_3979" x1="-3.03321" y1="75.3934" x2="44.9416" y2="-13.1281" gradientUnits="userSpaceOnUse">
<stop stop-color="#FF00C1"/>
<stop offset="1" stop-color="#F4AC24"/>
</linearGradient>
<linearGradient id="paint7_linear_2001_3979" x1="14.1999" y1="55.2638" x2="18.5473" y2="13.0332" gradientUnits="userSpaceOnUse">
<stop stop-color="#F4D63B" stop-opacity="0"/>
<stop offset="1" stop-color="#5C1CB2"/>
</linearGradient>
<linearGradient id="paint8_linear_2001_3979" x1="-2.75343" y1="75.5087" x2="44.6071" y2="-11.8791" gradientUnits="userSpaceOnUse">
<stop stop-color="#FF00C1"/>
<stop offset="1" stop-color="#F4AC24"/>
</linearGradient>
<linearGradient id="paint9_linear_2001_3979" x1="75.3271" y1="43.7403" x2="52.238" y2="103.267" gradientUnits="userSpaceOnUse">
<stop stop-color="#A76DFC"/>
<stop offset="1" stop-color="#5C1CB2"/>
</linearGradient>
<linearGradient id="paint10_linear_2001_3979" x1="109.753" y1="48.2992" x2="108.016" y2="85.0772" gradientUnits="userSpaceOnUse">
<stop stop-color="white" stop-opacity="0"/>
<stop offset="1" stop-color="#5C1CB2"/>
</linearGradient>
<linearGradient id="paint11_linear_2001_3979" x1="161.315" y1="50.6401" x2="159.587" y2="87.2167" gradientUnits="userSpaceOnUse">
<stop stop-color="white" stop-opacity="0"/>
<stop offset="1" stop-color="#5C1CB2"/>
</linearGradient>
</defs>
</svg>
