<svg width="208" height="96" viewBox="0 0 208 96" fill="none" xmlns="http://www.w3.org/2000/svg">
<g clip-path="url(#clip0_2001_3947)">
<path d="M182.897 13.5317H25.1034C19.9539 13.5317 15.7793 19.6026 15.7793 27.0915V132.44C15.7793 139.929 19.9539 146 25.1034 146H182.897C188.046 146 192.221 139.929 192.221 132.44V27.0915C192.221 19.6026 188.046 13.5317 182.897 13.5317Z" fill="white" fill-opacity="0.05"/>
<path d="M182.538 14.2439H24.7448C19.7933 14.2439 15.7793 20.4756 15.7793 28.1628V140.627C15.7793 148.315 19.7933 154.546 24.7448 154.546H182.538C187.489 154.546 191.503 148.315 191.503 140.627V28.1628C191.503 20.4756 187.489 14.2439 182.538 14.2439Z" stroke="white" stroke-opacity="0.1"/>
<path d="M39.0896 29.2001C39.0896 25.2667 35.8784 22.0781 31.9172 22.0781C27.956 22.0781 24.7448 25.2667 24.7448 29.2001C24.7448 33.1334 27.956 36.322 31.9172 36.322C35.8784 36.322 39.0896 33.1334 39.0896 29.2001Z" fill="white" fill-opacity="0.2"/>
<path d="M38.731 29.1999C38.731 25.4633 35.6804 22.4341 31.9172 22.4341C28.1541 22.4341 25.1035 25.4633 25.1035 29.1999C25.1035 32.9366 28.1541 35.9658 31.9172 35.9658C35.6804 35.9658 38.731 32.9366 38.731 29.1999Z" stroke="white" stroke-opacity="0.1"/>
<path d="M164.607 44.8684H27.6138C26.0293 44.8684 24.7448 46.1439 24.7448 47.7172C24.7448 49.2905 26.0293 50.566 27.6138 50.566H164.607C166.191 50.566 167.476 49.2905 167.476 47.7172C167.476 46.1439 166.191 44.8684 164.607 44.8684Z" fill="white" fill-opacity="0.2"/>
<path d="M77.1034 26.3513H48.4138C46.8293 26.3513 45.5448 27.6268 45.5448 29.2001C45.5448 30.7734 46.8293 32.0489 48.4138 32.0489H77.1034C78.6879 32.0489 79.9724 30.7734 79.9724 29.2001C79.9724 27.6268 78.6879 26.3513 77.1034 26.3513Z" fill="white" fill-opacity="0.2"/>
<path d="M98.6207 26.3513H87.1448C85.5604 26.3513 84.2759 27.6268 84.2759 29.2001C84.2759 30.7734 85.5604 32.0489 87.1448 32.0489H98.6207C100.205 32.0489 101.49 30.7734 101.49 29.2001C101.49 27.6268 100.205 26.3513 98.6207 26.3513Z" fill="white" fill-opacity="0.2"/>
<path d="M84.2758 56.2634H27.6138C26.0293 56.2634 24.7448 57.5389 24.7448 59.1122C24.7448 60.6855 26.0293 61.961 27.6138 61.961H84.2758C85.8603 61.961 87.1448 60.6855 87.1448 59.1122C87.1448 57.5389 85.8603 56.2634 84.2758 56.2634Z" fill="white" fill-opacity="0.2"/>
</g>
<defs>
<clipPath id="clip0_2001_3947">
<rect width="208" height="146" fill="white"/>
</clipPath>
</defs>
</svg>
