<svg width="1540" height="624" viewBox="0 0 1540 624" fill="none" xmlns="http://www.w3.org/2000/svg">
<path d="M42 40V41H1498V40V39H42V40ZM1500 42H1499V582H1500H1501V42H1500ZM1498 584V583H42V584V585H1498V584ZM40 582H41V42H40H39V582H40ZM42 584V583C41.4477 583 41 582.552 41 582H40H39C39 583.657 40.3431 585 42 585V584ZM1500 582H1499C1499 582.552 1498.55 583 1498 583V584V585C1499.66 585 1501 583.657 1501 582H1500ZM1498 40V41C1498.55 41 1499 41.4477 1499 42H1500H1501C1501 40.3432 1499.66 39 1498 39V40ZM42 40V39C40.3431 39 39 40.3431 39 42H40H41C41 41.4477 41.4477 41 42 41V40Z" fill="white" fill-opacity="0.1"/>
<rect x="1275.5" y="41.5" width="189" height="132.759" stroke="#2F2F2F"/>
<path d="M1464.5 41.5V174.259H1302.5V41.5H1464.5Z" stroke="#2F2F2F"/>
<g clip-path="url(#clip0_0_1)">
<path d="M1270 220.939L1408 466.939" stroke="#2F2F2F"/>
<path d="M1279 220.939L1417 466.939" stroke="#2F2F2F"/>
<path d="M1288 220.939L1426 466.939" stroke="#2F2F2F"/>
<path d="M1297 220.939L1435 466.939" stroke="#2F2F2F"/>
<path d="M1306 220.939L1444 466.939" stroke="#2F2F2F"/>
<path d="M1315 220.939L1453 466.939" stroke="#2F2F2F"/>
<path d="M1324 220.939L1462 466.939" stroke="#2F2F2F"/>
<path d="M1333 220.939L1471 466.939" stroke="#2F2F2F"/>
<path d="M1342 220.939L1480 466.939" stroke="#2F2F2F"/>
<path d="M1351 220.939L1489 466.939" stroke="#2F2F2F"/>
<path d="M1360 220.939L1498 466.939" stroke="#2F2F2F"/>
<path d="M1369 220.939L1507 466.939" stroke="#2F2F2F"/>
<path d="M1378 220.939L1516 466.939" stroke="#2F2F2F"/>
<path d="M1387 220.939L1525 466.939" stroke="#2F2F2F"/>
<path d="M1396 220.939L1534 466.939" stroke="#2F2F2F"/>
<path d="M1405 221.939L1543 467.939" stroke="#2F2F2F"/>
<path d="M1414 221.939L1552 467.939" stroke="#2F2F2F"/>
<path d="M1423 221.939L1561 467.939" stroke="#2F2F2F"/>
<path d="M1432 221.939L1570 467.939" stroke="#2F2F2F"/>
<path d="M1441 221.939L1579 467.939" stroke="#2F2F2F"/>
<path d="M1450 221.939L1588 467.939" stroke="#2F2F2F"/>
<path d="M1459 221.939L1597 467.939" stroke="#2F2F2F"/>
<path d="M1468 221.939L1606 467.939" stroke="#2F2F2F"/>
<path d="M1477 221.939L1615 467.939" stroke="#2F2F2F"/>
<path d="M1486 221.939L1624 467.939" stroke="#2F2F2F"/>
<path d="M1495 221.939L1633 467.939" stroke="#2F2F2F"/>
</g>
<rect x="1498.5" y="222.439" width="194.347" height="97.9962" transform="rotate(90 1498.5 222.439)" stroke="#2F2F2F"/>
<rect x="1275.5" y="222.439" width="124.843" height="194.347" stroke="#2F2F2F"/>
<rect x="1275.5" y="416.715" width="189.442" height="144.973" stroke="#2F2F2F"/>
<g clip-path="url(#clip1_0_1)">
<path d="M1318.79 231.553L1072.79 369.553" stroke="#2F2F2F"/>
<path d="M1318.79 240.553L1072.79 378.553" stroke="#2F2F2F"/>
<path d="M1318.79 249.553L1072.79 387.553" stroke="#2F2F2F"/>
<path d="M1318.79 258.553L1072.79 396.553" stroke="#2F2F2F"/>
<path d="M1318.79 267.553L1072.79 405.553" stroke="#2F2F2F"/>
<path d="M1318.79 276.553L1072.79 414.553" stroke="#2F2F2F"/>
<path d="M1318.79 285.553L1072.79 423.553" stroke="#2F2F2F"/>
<path d="M1318.79 294.553L1072.79 432.553" stroke="#2F2F2F"/>
<path d="M1318.79 303.553L1072.79 441.553" stroke="#2F2F2F"/>
<path d="M1317.79 312.553L1071.79 450.553" stroke="#2F2F2F"/>
<path d="M1317.79 321.553L1071.79 459.553" stroke="#2F2F2F"/>
<path d="M1317.79 330.553L1071.79 468.553" stroke="#2F2F2F"/>
<path d="M1317.79 339.553L1071.79 477.553" stroke="#2F2F2F"/>
<path d="M1317.79 348.553L1071.79 486.553" stroke="#2F2F2F"/>
<path d="M1320.31 351.552L1090.9 515.656" stroke="#2F2F2F"/>
<path d="M1321.29 360.499L1091.88 524.603" stroke="#2F2F2F"/>
<path d="M1322.28 369.445L1092.87 533.548" stroke="#2F2F2F"/>
<path d="M1323.27 378.39L1093.85 542.494" stroke="#2F2F2F"/>
<path d="M1324.25 387.337L1094.84 551.441" stroke="#2F2F2F"/>
<path d="M1317.79 402.553L1071.79 540.553" stroke="#2F2F2F"/>
</g>
<rect x="1317.29" y="406.053" width="33.397" height="40.86" rx="16.6985" transform="rotate(180 1317.29 406.053)" stroke="#2F2F2F"/>
<path d="M1374.84 174.713L1352.9 221.94H1324.21L1301.01 174.713H1374.84Z" stroke="#2F2F2F"/>
<path d="M1275 174.713L1462.93 174.713" stroke="#2F2F2F"/>
<path d="M1275.84 174.713L1275.84 223.013" stroke="#2F2F2F"/>
<path d="M1386.58 175.213C1396.39 175.213 1404.54 185.439 1404.54 198.326C1404.54 211.213 1396.39 221.439 1386.58 221.439C1376.77 221.439 1368.62 211.213 1368.62 198.326C1368.62 185.439 1376.77 175.213 1386.58 175.213Z" stroke="#2F2F2F"/>
<path d="M1439.9 567.322H1305.58L1372.74 418.502L1439.9 567.322Z" stroke="#2F2F2F"/>
<g clip-path="url(#clip2_0_1)">
<path d="M287 -94.7012L41 43.2988" stroke="#2F2F2F"/>
<path d="M287 -85.7012L41 52.2988" stroke="#2F2F2F"/>
<path d="M287 -76.7012L41 61.2988" stroke="#2F2F2F"/>
<path d="M287 -67.7012L41 70.2988" stroke="#2F2F2F"/>
<path d="M287 -58.7012L41 79.2988" stroke="#2F2F2F"/>
<path d="M287 -49.7012L41 88.2988" stroke="#2F2F2F"/>
<path d="M287 -40.7012L41 97.2988" stroke="#2F2F2F"/>
<path d="M287 -31.7012L41 106.299" stroke="#2F2F2F"/>
<path d="M287 -22.7012L41 115.299" stroke="#2F2F2F"/>
<path d="M287 -13.7012L41 124.299" stroke="#2F2F2F"/>
<path d="M287 -4.70117L41 133.299" stroke="#2F2F2F"/>
<path d="M286 4.29883L40 142.299" stroke="#2F2F2F"/>
<path d="M286 13.2988L40 151.299" stroke="#2F2F2F"/>
<path d="M286 22.2988L40 160.299" stroke="#2F2F2F"/>
<path d="M286 31.2988L40 169.299" stroke="#2F2F2F"/>
<path d="M286 40.2988L40 178.299" stroke="#2F2F2F"/>
<path d="M286 49.2988L40 187.299" stroke="#2F2F2F"/>
<path d="M286 58.2988L40 196.299" stroke="#2F2F2F"/>
<path d="M286 67.2988L40 205.299" stroke="#2F2F2F"/>
<path d="M286 76.2988L40 214.299" stroke="#2F2F2F"/>
<path d="M286 85.2988L40 223.299" stroke="#2F2F2F"/>
<path d="M286 94.2988L40 232.299" stroke="#2F2F2F"/>
</g>
<rect x="285.5" y="97.7988" width="245" height="56.2985" transform="rotate(180 285.5 97.7988)" stroke="#2F2F2F"/>
<path d="M168 98.7988C184.376 98.7988 199.24 107.643 210.026 122.017C220.813 136.39 227.5 156.27 227.5 178.25C227.5 200.23 220.813 220.111 210.026 234.484C199.24 248.858 184.376 257.702 168 257.702C151.624 257.702 136.76 248.858 125.974 234.484C115.187 220.111 108.5 200.23 108.5 178.25C108.5 156.27 115.187 136.39 125.974 122.017C136.76 107.643 151.624 98.7988 168 98.7988Z" stroke="#2F2F2F"/>
<mask id="path-87-inside-1_0_1" fill="white">
<path d="M287 416.107C287 395.371 283.935 374.838 277.98 355.68C272.025 336.522 263.296 319.115 252.292 304.452C241.288 289.789 228.225 278.158 213.848 270.223C199.471 262.287 184.062 258.203 168.5 258.203C152.938 258.203 137.529 262.287 123.152 270.223C108.775 278.158 95.7116 289.789 84.7078 304.452C73.7041 319.115 64.9755 336.522 59.0203 355.68C53.0651 374.838 50 395.371 50 416.107L168.5 416.107H287Z"/>
</mask>
<path d="M287 416.107C287 395.371 283.935 374.838 277.98 355.68C272.025 336.522 263.296 319.115 252.292 304.452C241.288 289.789 228.225 278.158 213.848 270.223C199.471 262.287 184.062 258.203 168.5 258.203C152.938 258.203 137.529 262.287 123.152 270.223C108.775 278.158 95.7116 289.789 84.7078 304.452C73.7041 319.115 64.9755 336.522 59.0203 355.68C53.0651 374.838 50 395.371 50 416.107L168.5 416.107H287Z" stroke="#2F2F2F" stroke-width="2" mask="url(#path-87-inside-1_0_1)"/>
<path d="M62 98.2988H286" stroke="#2F2F2F"/>
<path d="M286 415.441L286 98.3006" stroke="#2F2F2F"/>
<path d="M286 98.2988L286 41.0003" stroke="#2F2F2F"/>
<rect x="57.5" y="414.607" width="229" height="149.575" stroke="#2F2F2F"/>
<rect x="57.5" y="414.607" width="229" height="29.6481" stroke="#2F2F2F"/>
<path d="M237 445.256C250.615 445.256 262.978 452.608 271.955 464.57C280.932 476.533 286.5 493.081 286.5 511.382C286.5 529.682 280.932 546.231 271.955 558.193C262.978 570.156 250.615 577.508 237 577.508C223.385 577.508 211.022 570.156 202.045 558.193C193.068 546.231 187.5 529.682 187.5 511.382C187.5 493.081 193.068 476.533 202.045 464.57C211.022 452.608 223.385 445.256 237 445.256Z" stroke="#2F2F2F"/>
<path d="M187 531.369L187 444.755" stroke="#2F2F2F"/>
<path d="M100 578.453L100 444.312L187.181 511.383L100 578.453Z" stroke="#2F2F2F"/>
<defs>
<clipPath id="clip0_0_1">
<rect x="1499" y="221.939" width="195.347" height="98.9962" transform="rotate(90 1499 221.939)" fill="white"/>
</clipPath>
<clipPath id="clip1_0_1">
<rect x="1317.79" y="406.553" width="34.397" height="41.86" rx="17.1985" transform="rotate(180 1317.79 406.553)" fill="white"/>
</clipPath>
<clipPath id="clip2_0_1">
<rect x="286" y="98.2988" width="246" height="57.2985" transform="rotate(180 286 98.2988)" fill="white"/>
</clipPath>
</defs>
</svg>
